<svg xmlns="http://www.w3.org/2000/svg" viewBox="0 0 88 88"><defs><style>.cls-1{fill:none;}.cls-2{fill:#e7e8e9;}.cls-3{fill:#fff;}</style></defs><title>ic crystal ball</title><g id="Layer_2" data-name="Layer 2"><g id="Layer_1-2" data-name="Layer 1"><g id="ic_crystal_ball" data-name="ic crystal ball"><rect class="cls-1" width="88" height="88"/><circle class="cls-2" cx="44" cy="40.34" r="29.33"/><path class="cls-2" d="M44,73.34a33,33,0,1,1,33-33A33,33,0,0,1,44,73.34Zm0-58.67A25.67,25.67,0,1,0,69.67,40.34,25.7,25.7,0,0,0,44,14.67Z"/><path class="cls-3" d="M54.88,62.57a33,33,0,0,1-33-33c0-.81.06-1.6.12-2.4a25.64,25.64,0,0,0,35,35.3C56.27,62.51,55.58,62.57,54.88,62.57Z"/><polygon class="cls-2" points="73.34 73.33 44.01 66 14.67 73.33 14.67 80.66 73.34 80.66 73.34 73.33"/><circle class="cls-3" cx="57.54" cy="27.43" r="5.5"/></g></g></g></svg>