<svg xmlns="http://www.w3.org/2000/svg" viewBox="0 0 342.72 223.91"><defs><style>.cls-1{fill:#e7e8e9;}.cls-2{fill:#f3f3f4;}.cls-3{fill:#fff;}</style></defs><title>img_SEARCH_Wizard-Zzz</title><g id="Layer_2" data-name="Layer 2"><g id="Layer_1-2" data-name="Layer 1"><g id="img_SEARCH_Wizard-Zzz"><path class="cls-1" d="M0,71.1,27.55,31.19v-.42H.71V21.5h40.5v7.35L13.78,68.76v.46H42v9.27H0Z"/><path class="cls-1" d="M43.84,91.84,63.66,63.13v-.3H44.35V56.16H73.48v5.29L53.75,90.16v.33H74.08v6.67H43.84Z"/><path class="cls-1" d="M80.6,112.34,94.77,91.81V91.6H81V86.83h20.83v3.78l-14.1,20.53v.24h14.53v4.77H80.6Z"/><path class="cls-2" d="M211.79,15c-6.33-1.65,9.79,42.07,39.55,10.27,0,0-6,48.3-39.88,47.47Z"/><path class="cls-2" d="M186.36,140.54c-34.52-6-94.21-7.24-117,1.3S38.58,178.1,53,200.93c13.78,21.78,68.81,22,74.68,23,.49-4.93-2.84-25.26-2.47-33,.39-7.92,4.26-16,4.26-16s15.22-12.1,51.74-1.24C318.57,220,383.07,177.71,316,176S270.64,155.1,186.36,140.54Z"/><path class="cls-2" d="M186.28,161.82c0-.2,61.54,21,61.56,20.84,2.32-25.66,19.19-5.22,6.35-27.56C205.52,70.45,230.62.16,203,0c-37.46-.22-76.76,69.79-84.46,155.1a13.68,13.68,0,0,0,2.49,9.18C139.89,162.72,162.27,161.82,186.28,161.82Z"/><path class="cls-3" d="M215.39,135.83l6,3.64-1.6-6.86,5.33-4.62-7-.6-2.74-6.47-2.74,6.47-7,.6L211,132.6l-1.6,6.86Z"/><path class="cls-3" d="M182.91,28.42l5.22,4.73-.25-7L194,22.6l-6.77-1.93-1.45-6.88-3.93,5.83-7-.76,4.35,5.55-2.89,6.43Z"/><path class="cls-3" d="M139.15,124l2.73,3.52.61-4.41,4.19-1.51-4-1.95-.15-4.44-3.09,3.19-4.27-1.24,2.09,3.93-2.5,3.68Z"/><path class="cls-3" d="M177.25,115.83l2.73,3.52.61-4.41,4.19-1.51-4-1.95-.15-4.44-3.09,3.19L173.27,109l2.09,3.93-2.5,3.68Z"/><path class="cls-3" d="M214.74,102.19l2.73,3.52.61-4.41,4.19-1.51-4-1.95-.15-4.44L215,96.59l-4.27-1.24,2.09,3.93-2.5,3.68Z"/><path class="cls-3" d="M184.51,84a23,23,0,0,1-16.79-38.67A24.36,24.36,0,1,0,200.19,77.8,22.9,22.9,0,0,1,184.51,84Z"/></g></g></g></svg>