<svg xmlns="http://www.w3.org/2000/svg" viewBox="0 0 296.93 244.33"><defs><style>.cls-1{fill:#e7e8e9;}.cls-2{fill:#f3f3f4;}.cls-3{fill:#fff;}</style></defs><title>img_SEARCH_Wizard-zero-results</title><g id="Layer_2" data-name="Layer 2"><g id="Layer_1-2" data-name="Layer 1"><g id="img_SEARCH_Wizard-_" data-name="img_SEARCH_Wizard-?"><path class="cls-1" d="M132.5,185.34c9.73,0,18.33,5,18.33,15.15,0,7.22-4.26,10.56-8.27,13.44-4.88,3.55-6.76,4.88-6.76,9.48v2.21h-9.94l0-2.55c-.42-6.26,2.76-10.23,7.43-13.44,3.88-2.76,6.43-4.59,6.43-8.56,0-4.93-3.8-7-7.81-7-5.26,0-8,3.59-8.06,8.22h-10.1C113.34,189.89,123.11,185.34,132.5,185.34ZM131,232.56c3.46,0,6.35,2.42,6.35,5.89s-2.88,5.89-6.35,5.89-6.3-2.42-6.3-5.89S127.53,232.56,131,232.56Z"/><path class="cls-2" d="M166,15c-6.33-1.65,9.79,42.07,39.55,10.27,0,0-6,48.3-39.88,47.47Z"/><path class="cls-2" d="M140.56,140.54c-34.52-6-94.21-7.24-117,1.3S-7.21,178.1,7.24,200.93c13.78,21.78,68.81,22,74.68,23,.49-4.93-2.84-25.26-2.47-33,.39-7.92,4.26-16,4.26-16s15.22-12.1,51.74-1.24c137.33,46.25,201.83,4,134.79,2.22S224.85,155.1,140.56,140.54Z"/><path class="cls-2" d="M140.48,161.82c0-.2,61.54,21,61.56,20.84,2.32-25.66,19.19-5.22,6.35-27.56C159.73,70.45,184.83.16,157.2,0,119.74-.22,80.44,69.79,72.74,155.1a13.68,13.68,0,0,0,2.49,9.18C94.1,162.72,116.48,161.82,140.48,161.82Z"/><path class="cls-3" d="M169.6,135.83l6,3.64L174,132.6l5.33-4.62-7-.6-2.74-6.47-2.74,6.47-7,.6,5.33,4.62-1.6,6.86Z"/><path class="cls-3" d="M137.12,28.42l5.22,4.73-.25-7,6.12-3.51-6.77-1.93L140,13.79,136,19.62l-7-.76,4.35,5.55-2.89,6.43Z"/><path class="cls-3" d="M93.36,124l2.73,3.52.61-4.41,4.19-1.51-4-1.95-.15-4.44-3.09,3.19-4.27-1.24,2.09,3.93L89,124.75Z"/><path class="cls-3" d="M131.46,115.83l2.73,3.52.61-4.41,4.19-1.51-4-1.95-.15-4.44-3.09,3.19L127.48,109l2.09,3.93-2.5,3.68Z"/><path class="cls-3" d="M168.94,102.19l2.73,3.52.61-4.41,4.19-1.51-4-1.95-.15-4.44-3.09,3.19L165,95.35l2.09,3.93-2.5,3.68Z"/><path class="cls-3" d="M138.72,84a23,23,0,0,1-16.79-38.67A24.36,24.36,0,1,0,154.4,77.8,22.9,22.9,0,0,1,138.72,84Z"/></g></g></g></svg>