<svg xmlns="http://www.w3.org/2000/svg" viewBox="0 0 296.93 410.45"><defs><style>.cls-1,.cls-5{fill:#f3f3f4;}.cls-2{fill:#fff;}.cls-3{fill:none;}.cls-4{fill:#e7e8e9;}.cls-5{stroke:#196e9d;stroke-miterlimit:10;stroke-width:0.49px;}</style></defs><title>img_SEARCH_Wizard-w-crystal-ball</title><g id="Layer_2" data-name="Layer 2"><g id="Layer_1-2" data-name="Layer 1"><g id="img_SEARCH_Wizard-w-crystal-ball"><path class="cls-1" d="M166,15c-6.33-1.65,9.79,42.07,39.55,10.27,0,0-6,48.3-39.88,47.47Z"/><path class="cls-1" d="M140.56,140.54c-34.52-6-94.21-7.24-117,1.3S-7.21,178.1,7.24,200.93c13.78,21.78,68.81,22,74.68,23,.49-4.93-2.84-25.26-2.47-33,.39-7.92,4.26-16,4.26-16s15.22-12.1,51.74-1.24c137.33,46.25,201.83,4,134.79,2.22S224.85,155.1,140.56,140.54Z"/><path class="cls-1" d="M140.48,161.82c0-.2,61.54,21,61.56,20.84,2.32-25.66,19.19-5.22,6.35-27.56C159.73,70.45,184.83.16,157.2,0,119.74-.22,80.44,69.79,72.74,155.1a13.68,13.68,0,0,0,2.49,9.18C94.1,162.72,116.48,161.82,140.48,161.82Z"/><path class="cls-2" d="M169.6,135.83l6,3.64L174,132.6l5.33-4.62-7-.6-2.74-6.47-2.74,6.47-7,.6,5.33,4.62-1.6,6.86Z"/><path class="cls-2" d="M137.12,28.42l5.22,4.73-.25-7,6.12-3.51-6.77-1.93L140,13.79,136,19.62l-7-.76,4.35,5.55-2.89,6.43Z"/><path class="cls-2" d="M93.36,124l2.73,3.52.61-4.41,4.19-1.51-4-1.95-.15-4.44-3.09,3.19-4.27-1.24,2.09,3.93L89,124.75Z"/><path class="cls-2" d="M131.46,115.83l2.73,3.52.61-4.41,4.19-1.51-4-1.95-.15-4.44-3.09,3.19L127.48,109l2.09,3.93-2.5,3.68Z"/><path class="cls-2" d="M168.94,102.19l2.73,3.52.61-4.41,4.19-1.51-4-1.95-.15-4.44-3.09,3.19L165,95.35l2.09,3.93-2.5,3.68Z"/><path class="cls-2" d="M138.72,84a23,23,0,0,1-16.79-38.67A24.36,24.36,0,1,0,154.4,77.8,22.9,22.9,0,0,1,138.72,84Z"/><path class="cls-1" d="M53,230.09c6.67,13,24,10.7,24,2.86S65.81,217.5,58.59,207.19,46.37,217.12,53,230.09Z"/><path class="cls-1" d="M232.37,230.09c-6.67,13-24,10.7-24,2.86s11.21-15.45,18.44-25.75S239,217.12,232.37,230.09Z"/><rect class="cls-3" x="22.71" y="170.34" width="240" height="240.1"/><ellipse class="cls-4" cx="142.71" cy="280.4" rx="80" ry="80.03"/><path class="cls-4" d="M142.71,370.43a90,90,0,1,1,90-90A90.12,90.12,0,0,1,142.71,370.43Zm0-160.07a70,70,0,1,0,70,70A70.09,70.09,0,0,0,142.71,210.37Z"/><path class="cls-2" d="M172.37,341.06a90,90,0,0,1-90-90.05c0-2.21.17-4.37.33-6.54a69.92,69.92,0,0,0,95.4,96.3C176.18,340.89,174.3,341.06,172.37,341.06Z"/><polygon class="cls-4" points="222.72 370.42 142.72 350.41 62.72 370.42 62.72 390.43 222.72 390.43 222.72 370.42"/><ellipse class="cls-2" cx="179.63" cy="245.2" rx="15" ry="15.01"/><path class="cls-1" d="M247,253.58c0,7.84-5.63,11.75-12.82,11.75s-18.75-.25-18.75-8.09,11.57-12,18.75-12S247,245.74,247,253.58Z"/><path class="cls-1" d="M250.82,279.45c0,7.06-7.69,12.78-14.16,12.78s-24.21-1-22.5-13.28,15.28-10.22,21.75-10.22S250.82,272.39,250.82,279.45Z"/><path class="cls-1" d="M244.22,304.93c0,7.84-5.83,12-13,12s-20.57-5.21-17.81-15.26,10.62-8.08,17.81-8.08S244.22,297.1,244.22,304.93Z"/><ellipse class="cls-1" cx="221.29" cy="326.34" rx="9.92" ry="10.82"/><path class="cls-5" d="M30.88,100.15"/><path class="cls-1" d="M38.3,253.58c0,7.84,5.63,11.75,12.82,11.75s18.75-.25,18.75-8.09-11.57-12-18.75-12S38.3,245.74,38.3,253.58Z"/><path class="cls-1" d="M34.48,279.45c0,7.06,7.69,12.78,14.16,12.78s24.21-1,22.5-13.28-15.28-10.22-21.75-10.22S34.48,272.39,34.48,279.45Z"/><path class="cls-1" d="M41.08,304.93c0,7.84,5.83,12,13,12s20.57-5.21,17.81-15.26-10.62-8.08-17.81-8.08S41.08,297.1,41.08,304.93Z"/><ellipse class="cls-1" cx="64.01" cy="326.34" rx="9.92" ry="10.82"/></g></g></g></svg>